<svg xmlns="http://www.w3.org/2000/svg" width="1600" height="600" fill="none" viewBox="0 0 1600 600">
  <g clip-path="url(#a)">
    <path fill="#fff" fill-opacity=".12" d="M215.763 129.046C172.935 82.514 118.219-.219 118.219-.219h132.615s-11.141 32.952-3.35 52.34c9.962 24.79 37.559 31.434 60.042 53.28 27.265 26.492 38.14 59.225 65.99 71.564 34.125 15.119 84.647 17.105 104.35-9.166 31.728-42.304-50.079-54.987-84.255-72.974-20.095-10.576-41.431-28.248-57.816-54.643-9.087-14.639-28.269-40.401-28.269-40.401h112.047s23.209 38.43 44.411 57.098c61.451 54.109 131.851 50.243 220.464 63.443 58.562 8.724 143.913 39.198 195.402 100.857 55.582 66.562 74.087 109.798 184.46 110.677 56.26.448 141.34-37.801 141.34-37.801s86.8-40.725 138.61-75.396c52.99-35.461 78.77-61.084 125.3-104.681 30.84-28.899 46.08-47.198 76.13-76.925 14.79-14.632 38.06-37.272 38.06-37.272h12.69c-33.3 38.858-62.12 75.94-106.26 120.541-46.76 47.233-74.17 72.936-126.89 113.405-53.42 41.008-83.81 64.846-144.33 94.372-50.37 24.569-78.84 42.505-134.12 54.03-45.83 9.553-73.38 13.25-119.656 7.034-29.724-3.994-45.968-10.121-73.752-21.412-42.613-17.318-58.962-41.77-100.716-61.064-36.898-17.051-58.197-27.708-98.337-34.101-119.116-18.972-214.92 35.38-334.663-20.619-66.426-31.066-92.292-68.965-141.953-122.921ZM69.504 239.012c-14.59-2.51-22.996-5.34-35.533-13.215C18.185 215.879 1.4 190.895 1.4 190.895v171.74s27.309-7.059 45.156-9.623c55.352-7.954 90.01-18.747 142.342 0 26.848 9.617 45.133 14.626 66.25 33.793 54.157 49.158 82.36 83.186 160.798 89.83 30.898 2.618 49.573-.603 79.262-9.55 28.449-8.574 39.849-17.522 67.03-22.078 29.646-4.968 76.973 0 76.973 0s-58.774-18.23-96.752-19.782c-40.245-1.645-72.582 13.801-98.303 11.852-35.94-2.722-57.504-19.52-82.249-41.87-37.007-33.425-51.612-74.36-94.013-113.105-57.025-52.107-93.559-52.257-133.396-50.142-25.495 1.354-45.986 10.321-64.994 7.052Zm533.774 282.156c-22.582 1.315-56.141 14.255-56.141 14.255s39.741-2.912 64.044 3.119c20.227 5.02 29.37 17.266 49.051 21.022 18.734 3.576 42.1-4.27 59.628-16.265 12.568-8.6 22.535-20.784 26.91-28.223 0 0-20.793 14.206-36.099 17.722-14.989 3.442-24.176 2.306-39.381 0-26.461-4.015-41.112-13.197-68.012-11.63Z"/>
    <path fill="#fff" fill-opacity=".12" fill-rule="evenodd" d="M796.989-.22h655.441s-43.12 36.954-73.3 57.1c-44.59 29.768-71.46 44.855-121.76 63.442-43.23 15.98-68.61 24.176-114.49 28.686-1.85.182-3.65.361-5.41.536-27.33 2.717-44.77 4.452-73.16-.536-29.28-5.145-45.69-13.225-70.844-25.606-2.028-.998-4.112-2.025-6.265-3.08-24.262-11.888-37.74-19.331-59.366-35.526-10.533-7.888-17.638-15.582-24.663-23.188-7.611-8.24-15.128-16.38-26.808-24.555C848.308 17.417 796.989-.219 796.989-.219Zm313.961 13.89c-14.58 5.32-22.58 12.337-32.14 23.384-18.72 21.629-12.66 44.926 10.05 56.379 22.09 11.137 61.94 9.235 88.4-11.012 10.73-8.214 14.69-18.192 13.92-31.687-1.15-20.347-11.66-30.008-30.78-37.064-15.56-5.741-31.31-6.62-49.45 0Z" clip-rule="evenodd"/>
  </g>
  <defs>
    <clipPath id="a">
      <path fill="#fff" d="M0 0h1600v600H0z"/>
    </clipPath>
  </defs>
</svg>
