<svg width="1600" height="500" viewBox="0 0 1600 500" fill="none" xmlns="http://www.w3.org/2000/svg">
<path fill-rule="evenodd" clip-rule="evenodd" d="M1600 28.3917V499.544H0V28.3917C113.991 193.716 346.105 452.314 610.594 468.049C676.204 471.952 769.808 474.041 777.601 454.144C785.395 434.246 766.116 435.015 761.448 421.929C756.779 408.84 766.018 395.523 779.186 391.085C798.17 384.687 813.727 388.281 845.934 421.929C864.637 441.468 907.252 459.752 951.451 468.049C1157.92 506.809 1416.18 282.051 1600 28.3917ZM816.421 406.47C812.608 405.17 809.969 403.009 806.293 404.695C802.25 406.55 811.289 409.533 814.212 412.888C816.553 415.576 817.72 416.673 820.415 419.005C823.795 421.929 826.506 427.229 829.142 424.184C831.139 421.877 829.018 415.399 825.941 412.11C822.92 408.88 820.507 407.863 816.421 406.47Z" fill="white"/>
<path d="M626.749 357.224L626.434 357.36C620.981 359.715 617.633 361.161 613.241 365.295C609.335 368.972 605.179 376.42 605.179 376.42C605.179 376.42 596.845 384.496 597.989 390.599C599.534 398.846 609.844 397.993 618.225 397.993C635.225 397.993 643.085 396.651 659.458 392.628C666.598 390.874 670.165 389.92 677.45 388.934C684.111 388.032 689.024 389.162 695.599 387.763C702.157 386.368 709.478 387.246 711.286 380.783C713.285 373.643 704.868 370.491 698.432 366.822C691.016 362.595 683.852 363.77 675.591 361.63C667.141 359.442 663.739 357.309 655.854 355.697C649.167 354.33 645.284 352.646 638.515 353.516C633.737 354.129 631.172 355.313 626.749 357.224Z" fill="white"/>
</svg>
